<svg width="24" height="24" viewBox="0 0 24 24" fill="none" xmlns="http://www.w3.org/2000/svg">
<path d="M12.0291 17.3263C11.8546 17.3263 11.6815 17.2926 11.5203 17.2253C11.359 17.1598 11.2127 17.0606 11.0901 16.9365L2.23178 8.07821C2.05509 7.81955 1.97537 7.50773 2.00665 7.19592C2.03792 6.88411 2.17822 6.59356 2.40276 6.37564C2.6273 6.15773 2.92168 6.02484 3.23399 6.00358C3.54628 5.98055 3.85643 6.06914 4.10975 6.2534L12.0291 14.1196L19.9484 6.2534C20.1982 6.09218 20.495 6.01777 20.7914 6.04435C21.0878 6.07269 21.3667 6.1967 21.5832 6.40222C21.7997 6.60596 21.9412 6.87703 21.9853 7.17113C22.0294 7.46523 21.9735 7.7664 21.8264 8.02506L12.9681 16.8834C12.8499 17.018 12.7057 17.1261 12.5443 17.2023C12.3829 17.2785 12.2075 17.321 12.0291 17.3263Z" fill="#2E3137"/>
</svg>
